<?xml version="1.0" encoding="UTF-8" standalone="no"?>
<svg
   xmlns:dc="http://purl.org/dc/elements/1.1/"
   xmlns:cc="http://creativecommons.org/ns#"
   xmlns:rdf="http://www.w3.org/1999/02/22-rdf-syntax-ns#"
   xmlns:svg="http://www.w3.org/2000/svg"
   xmlns="http://www.w3.org/2000/svg"
   version="1.1"
   id="svg3367"
   viewBox="0 0 744.09448819 1052.3622047"
   height="297mm"
   width="210mm">
  <defs
     id="defs3369" />
  <metadata
     id="metadata3372">
    <rdf:RDF>
      <cc:Work
         rdf:about="">
        <dc:format>image/svg+xml</dc:format>
        <dc:type
           rdf:resource="http://purl.org/dc/dcmitype/StillImage" />
        <dc:title></dc:title>
      </cc:Work>
    </rdf:RDF>
  </metadata>
  <g
     id="layer1">
    <g
       transform="translate(-12,-38)"
       id="g4843">
      <g
         id="g4778"
         transform="translate(336.21836,23.233508)">
        <path
           id="rect4727"
           d="m 168.06108,25.066151 c 12.97832,0 25.95665,0 38.93497,0 0,10.72118 0,21.44236 0,32.16354 -12.97832,0 -25.95665,0 -38.93497,0 0,-10.72118 0,-21.44236 0,-32.16354 z m -374.7197,0.407209 c 13.7813,0 27.5626,0 41.3439,0 0,10.571775 0,21.143549 0,31.715324 -13.7813,0 -27.5626,0 -41.3439,0 0,-10.571775 0,-21.143549 0,-31.715324 z m 33.8012,14.0325 c 0,93.23763 0,186.47526 0,279.71289 116.190753,0 232.381507,0 348.57226,0 0,-93.23763 0,-186.47526 0,-279.712895"
           style="fill:#003410;fill-opacity:1;stroke:#003410;stroke-width:19.265028;stroke-linecap:butt;stroke-linejoin:round;stroke-miterlimit:4;stroke-dasharray:none;stroke-opacity:1" />
        <path
           id="liquid"
           d="m -140.27085,39.009565 c 0,83.421645 0,166.843285 0,250.264925 94.466367,0 188.932733,0 283.3991,0 0,-83.42164 0,-166.84328 0,-250.264925"
           style="fill:#72c9c6;fill-opacity:1;stroke:#72c9c6;stroke-width:29.85139465;stroke-linecap:butt;stroke-linejoin:round;stroke-miterlimit:4;stroke-dasharray:none;stroke-opacity:1" />
        <path
           id="level"
           d="m 157.25057,88.928571 c -9.79559,14.650839 -26.09666,9.591099 -38.50883,10.320399 -4.42763,-1.10916 -25.684903,-1.75208 -18.59395,-14.527243 16.15482,-9.266664 34.10139,-8.025603 50.66226,-2.508345 2.16333,1.415108 5.78123,2.168486 6.44052,6.715189 z m -40.39682,0 C 107.05816,103.57941 90.757097,98.51967 78.344927,99.24897 73.917305,98.13981 52.660022,97.49689 59.75097,84.721727 c 16.154825,-9.266664 34.101396,-8.025603 50.66226,-2.508344 2.16333,1.415124 5.78123,2.168485 6.44052,6.715188 z M 61.558823,88.293103 C 51.763258,102.94398 35.46216,97.88423 23.049995,98.61351 18.622368,97.50438 -2.6349191,96.86143 4.4560403,84.086259 20.610865,74.819597 38.557435,76.060658 55.118301,81.577915 c 2.163342,1.415124 5.78123,2.168485 6.440522,6.715188 z M 8.555911,87.657635 c -9.7955651,14.650875 -26.096664,9.591125 -38.508828,10.320415 -4.427627,-1.10914 -25.684917,-1.75209 -18.593953,-14.527258 16.154824,-9.266659 34.101394,-8.025599 50.6622588,-2.508343 2.1240851,1.37564 5.8206835,2.21955 6.4405222,6.715186 z m -52.42991,1.270936 c -9.795588,14.650839 -26.096658,9.591099 -38.508829,10.320399 -4.427623,-1.10916 -25.684912,-1.75208 -18.593952,-14.527243 16.154818,-9.266666 34.101391,-8.025603 50.662258,-2.508345 2.163341,1.415108 5.781233,2.168486 6.440523,6.715189 z M -95.587652,90.0724 c -9.795558,14.65087 -26.096658,9.59112 -38.508828,10.32039 -4.42763,-1.10912 -25.68491,-1.75208 -18.59395,-14.527235 16.15483,-9.266656 34.1014,-8.025597 50.66225,-2.508347 2.124091,1.375653 5.820687,2.219555 6.440528,6.715192 z M -155.54047,36.884777 c 104.50169,0 209.003384,0 313.50508,0 0,17.973641 0,35.947281 0,53.920923 -104.501696,0 -209.00339,0 -313.50508,0 0,-17.973642 0,-35.947282 0,-53.920923 z"
           style="fill:#eff8fa;fill-opacity:1;stroke:none;stroke-width:30;stroke-linecap:butt;stroke-linejoin:miter;stroke-miterlimit:4;stroke-dasharray:none;stroke-opacity:1" />
        <path
           id="fill"
           d="m -155.50508,38.076488 c 104.369894,0 208.739791,0 313.10969,0 0,12.380953 0,24.761905 0,37.142857 -104.369899,0 -208.739796,0 -313.10969,0 0,-12.380952 0,-24.761904 0,-37.142857 z"
           style="fill:#eff8fa;fill-opacity:1;stroke:none;stroke-width:30;stroke-linecap:butt;stroke-linejoin:miter;stroke-miterlimit:4;stroke-dasharray:none;stroke-opacity:1" />
      </g>
      <path
         style="fill:#003410;fill-opacity:1;stroke:none;stroke-width:30;stroke-linecap:butt;stroke-linejoin:miter;stroke-miterlimit:4;stroke-dasharray:none;stroke-opacity:1"
         d="m 81.639603,112.19446 c 17.50931,0 35.018617,0 52.527927,0 0,3.36717 0,6.73435 0,10.10152 -17.50931,0 -35.018617,0 -52.527927,0 0,-3.36717 0,-6.73435 0,-10.10152 z"
         id="rect4813" />
      <path
         style="fill:#003410;fill-opacity:1;stroke:none;stroke-width:30;stroke-linecap:butt;stroke-linejoin:miter;stroke-miterlimit:4;stroke-dasharray:none;stroke-opacity:1"
         d="m 81.639603,208.19446 c 17.50931,0 35.018617,0 52.527927,0 0,3.36717 0,6.73435 0,10.10152 -17.50931,0 -35.018617,0 -52.527927,0 0,-3.36717 0,-6.73435 0,-10.10152 z"
         id="rect4815" />
      <path
         style="fill:#003410;fill-opacity:1;stroke:none;stroke-width:30;stroke-linecap:butt;stroke-linejoin:miter;stroke-miterlimit:4;stroke-dasharray:none;stroke-opacity:1"
         d="m 81.639603,304.19446 c 17.50931,0 35.018617,0 52.527927,0 0,3.36717 0,6.73435 0,10.10152 -17.50931,0 -35.018617,0 -52.527927,0 0,-3.36717 0,-6.73435 0,-10.10152 z"
         id="rect4817" />
      <path
         style="fill:#003410;fill-opacity:1;stroke:none;stroke-width:30;stroke-linecap:butt;stroke-linejoin:miter;stroke-miterlimit:4;stroke-dasharray:none;stroke-opacity:1"
         d="m 109.92388,160.19446 c 8.08122,0 16.16244,0 24.24366,0 0,3.36717 0,6.73435 0,10.10152 -8.08122,0 -16.16244,0 -24.24366,0 0,-3.36717 0,-6.73435 0,-10.10152 z"
         id="rect4819" />
      <path
         style="fill:#003410;fill-opacity:1;stroke:none;stroke-width:30;stroke-linecap:butt;stroke-linejoin:miter;stroke-miterlimit:4;stroke-dasharray:none;stroke-opacity:1"
         d="m 109.92388,254.19446 c 8.08122,0 16.16244,0 24.24366,0 0,3.36717 0,6.73435 0,10.10152 -8.08122,0 -16.16244,0 -24.24366,0 0,-3.36717 0,-6.73435 0,-10.10152 z"
         id="rect4821" />
      <path
         style="font-style:normal;font-weight:normal;font-size:40px;line-height:125%;font-family:sans-serif;letter-spacing:0px;word-spacing:0px;fill:#000000;fill-opacity:1;stroke:none;stroke-width:1px;stroke-linecap:butt;stroke-linejoin:miter;stroke-opacity:1"
         d="m 13.448389,98.770325 c 5.16276,0 10.325521,0 15.488281,0 0,1.106771 0,2.213545 0,3.320315 -3.958333,0 -7.916666,0 -11.875,0 0,2.38281 0,4.76562 0,7.14843 4.294453,-1.3928 9.768111,-0.36056 12.419434,3.54615 2.017802,3.11027 2.09895,7.31488 0.571175,10.64264 -1.754208,3.63482 -6.022048,5.11093 -9.827672,5.06649 -2.716193,0.0464 -5.418261,-0.44751 -8.006687,-1.24746 0,-1.32162 0,-2.64323 0,-3.96485 3.296313,1.76213 7.345836,2.50483 10.95398,1.33217 2.897415,-0.97814 4.416844,-4.2236 3.898544,-7.13714 -0.269506,-3.19928 -3.357852,-5.43846 -6.432114,-5.47585 -2.468977,-0.16319 -4.950816,0.38706 -7.189941,1.41754 0,-4.88281 0,-9.76562 0,-14.648435 z m 33.867188,2.597655 c -2.816602,-0.14277 -4.739365,2.43313 -5.326272,4.92819 -1.04126,4.19594 -0.99985,8.63472 -0.304985,12.88362 0.463386,2.65463 1.875425,5.80405 4.893036,6.14541 2.551845,0.47528 4.936586,-1.36581 5.689698,-3.74024 1.43653,-4.01401 1.331255,-8.40662 0.926685,-12.59333 -0.387032,-2.78107 -1.217108,-6.18246 -4.112339,-7.32992 -0.564143,-0.20582 -1.166678,-0.29427 -1.765823,-0.29373 z m 0,-3.124999 c 3.272185,-0.138372 6.464783,1.717504 7.944698,4.642719 2.357475,4.50261 2.367636,9.81424 1.879749,14.75654 -0.474132,3.94172 -2.072889,8.40826 -5.979767,10.11444 -3.798467,1.59206 -8.818893,0.69012 -11.180076,-2.88906 -2.749223,-4.1279 -2.897867,-9.335 -2.652092,-14.13288 0.297556,-4.15005 1.429883,-8.90696 5.201568,-11.261977 1.429692,-0.874974 3.122628,-1.235801 4.78592,-1.229782 z"
         id="max" />
      <path
         style="font-style:normal;font-weight:normal;font-size:40px;line-height:125%;font-family:sans-serif;letter-spacing:0px;word-spacing:0px;fill:#000000;fill-opacity:1;stroke:none;stroke-width:1px;stroke-linecap:butt;stroke-linejoin:miter;stroke-opacity:1"
         d="m 13.448389,194.77032 c 5.16276,0 10.325521,0 15.488281,0 0,1.10678 0,2.21355 0,3.32032 -3.958333,0 -7.916666,0 -11.875,0 0,2.38281 0,4.76562 0,7.14843 4.294453,-1.3928 9.768111,-0.36056 12.419434,3.54615 2.017802,3.11027 2.09895,7.31488 0.571175,10.64264 -1.754208,3.63482 -6.022048,5.11093 -9.827672,5.06649 -2.716193,0.0464 -5.418261,-0.44751 -8.006687,-1.24746 0,-1.32162 0,-2.64323 0,-3.96485 3.296313,1.76213 7.345836,2.50483 10.95398,1.33217 2.897415,-0.97814 4.416844,-4.2236 3.898544,-7.13714 -0.269506,-3.19928 -3.357852,-5.43846 -6.432114,-5.47585 -2.468977,-0.16319 -4.950816,0.38706 -7.189941,1.41754 0,-4.88281 0,-9.76562 0,-14.64844 z m 33.867188,2.59766 c -2.816602,-0.14277 -4.739365,2.43313 -5.326272,4.92819 -1.04126,4.19594 -0.99985,8.63472 -0.304985,12.88362 0.463386,2.65463 1.875425,5.80405 4.893036,6.14541 2.551845,0.47528 4.936586,-1.36581 5.689698,-3.74024 1.43653,-4.01401 1.331255,-8.40662 0.926685,-12.59333 -0.387032,-2.78107 -1.217108,-6.18246 -4.112339,-7.32992 -0.564143,-0.20582 -1.166678,-0.29427 -1.765823,-0.29373 z m 0,-3.125 c 3.272185,-0.13837 6.464783,1.71751 7.944698,4.64272 2.357475,4.50261 2.367636,9.81424 1.879749,14.75654 -0.474132,3.94172 -2.072889,8.40826 -5.979767,10.11444 -3.798467,1.59206 -8.818893,0.69012 -11.180076,-2.88906 -2.749223,-4.1279 -2.897867,-9.335 -2.652092,-14.13288 0.297556,-4.15005 1.429883,-8.90696 5.201568,-11.26198 1.429692,-0.87497 3.122628,-1.2358 4.78592,-1.22978 z"
         id="med" />
      <path
         style="font-style:normal;font-weight:normal;font-size:40px;line-height:125%;font-family:sans-serif;letter-spacing:0px;word-spacing:0px;fill:#000000;fill-opacity:1;stroke:none;stroke-width:1px;stroke-linecap:butt;stroke-linejoin:miter;stroke-opacity:1"
         d="m 13.448389,292.77032 c 5.16276,0 10.325521,0 15.488281,0 0,1.10678 0,2.21355 0,3.32032 -3.958333,0 -7.916666,0 -11.875,0 0,2.38281 0,4.76562 0,7.14843 4.294453,-1.3928 9.768111,-0.36056 12.419434,3.54615 2.017802,3.11027 2.09895,7.31488 0.571175,10.64264 -1.754208,3.63482 -6.022048,5.11093 -9.827672,5.06649 -2.716193,0.0464 -5.418261,-0.44751 -8.006687,-1.24746 0,-1.32162 0,-2.64323 0,-3.96485 3.296313,1.76213 7.345836,2.50483 10.95398,1.33217 2.897415,-0.97814 4.416844,-4.2236 3.898544,-7.13714 -0.269506,-3.19928 -3.357852,-5.43846 -6.432114,-5.47585 -2.468977,-0.16319 -4.950816,0.38706 -7.189941,1.41754 0,-4.88281 0,-9.76562 0,-14.64844 z m 33.867188,2.59766 c -2.816602,-0.14277 -4.739365,2.43313 -5.326272,4.92819 -1.04126,4.19594 -0.99985,8.63472 -0.304985,12.88362 0.463386,2.65463 1.875425,5.80405 4.893036,6.14541 2.551845,0.47528 4.936586,-1.36581 5.689698,-3.74024 1.43653,-4.01401 1.331255,-8.40662 0.926685,-12.59333 -0.387032,-2.78107 -1.217108,-6.18246 -4.112339,-7.32992 -0.564143,-0.20582 -1.166678,-0.29427 -1.765823,-0.29373 z m 0,-3.125 c 3.272185,-0.13837 6.464783,1.71751 7.944698,4.64272 2.357475,4.50261 2.367636,9.81424 1.879749,14.75654 -0.474132,3.94172 -2.072889,8.40826 -5.979767,10.11444 -3.798467,1.59206 -8.818893,0.69012 -11.180076,-2.88906 -2.749223,-4.1279 -2.897867,-9.335 -2.652092,-14.13288 0.297556,-4.15005 1.429883,-8.90696 5.201568,-11.26198 1.429692,-0.87497 3.122628,-1.2358 4.78592,-1.22978 z"
         id="min" />
    </g>
  </g>
</svg>
